<svg id="Laag_1" data-name="Laag 1" xmlns="http://www.w3.org/2000/svg" viewBox="0 0 385 305"><title>Logo</title><path d="M233.5,92a144.4,144.4,0,1,1-102.2,42.3A143.6,143.6,0,0,1,233.5,92m0-8A152.5,152.5,0,1,0,386,236.5,152.5,152.5,0,0,0,233.5,84Z" transform="translate(-81 -84)" style="fill:#000000"/><text transform="translate(16.6 214.5)" style="font-size:188px;fill:#000000;font-family:Marion-Regular, Marion">C<tspan x="123" y="0" style="font-size:175px;font-family:ArialMT, Arial">M</tspan></text><path d="M424.6,92a33.4,33.4,0,1,1-33.4,33.4A33.5,33.5,0,0,1,424.6,92m0-8A41.4,41.4,0,1,0,466,125.4,41.4,41.4,0,0,0,424.6,84Z" transform="translate(-81 -84)" style="fill:#000000"/></svg>